<?xml version="1.0" encoding="UTF-8"?>
<svg xmlns="http://www.w3.org/2000/svg" xmlns:xlink="http://www.w3.org/1999/xlink" width="265" zoomAndPan="magnify" viewBox="0 0 198.75 67.499998" height="90" preserveAspectRatio="xMidYMid meet" version="1.0" style="background: transparent;"><defs><g/><clipPath id="6336f862fc"><path d="M 0.605469 0 L 197.894531 0 L 197.894531 67.003906 L 0.605469 67.003906 Z M 0.605469 0 " clip-rule="nonzero"/></clipPath><clipPath id="6d89c49534"><path d="M 48 14 L 63 14 L 63 31 L 48 31 Z M 48 14 " clip-rule="nonzero"/></clipPath><clipPath id="bf3ad7fd88"><path d="M 38.574219 14.71875 L 61.664062 4.34375 L 72.652344 28.789062 L 49.5625 39.164062 Z M 38.574219 14.71875 " clip-rule="nonzero"/></clipPath><clipPath id="5007ad730e"><path d="M 38.574219 14.71875 L 61.664062 4.34375 L 72.652344 28.789062 L 49.5625 39.164062 Z M 38.574219 14.71875 " clip-rule="nonzero"/></clipPath><clipPath id="5f288eb434"><path d="M 49 9 L 53 9 L 53 14 L 49 14 Z M 49 9 " clip-rule="nonzero"/></clipPath><clipPath id="4cdcb469f5"><path d="M 38.574219 14.71875 L 61.664062 4.34375 L 72.652344 28.789062 L 49.5625 39.164062 Z M 38.574219 14.71875 " clip-rule="nonzero"/></clipPath><clipPath id="d94815ab62"><path d="M 38.574219 14.71875 L 61.664062 4.34375 L 72.652344 28.789062 L 49.5625 39.164062 Z M 38.574219 14.71875 " clip-rule="nonzero"/></clipPath><clipPath id="e94dc4d624"><path d="M 62 15 L 67 15 L 67 19 L 62 19 Z M 62 15 " clip-rule="nonzero"/></clipPath><clipPath id="1cd94fb013"><path d="M 38.574219 14.71875 L 61.664062 4.34375 L 72.652344 28.789062 L 49.5625 39.164062 Z M 38.574219 14.71875 " clip-rule="nonzero"/></clipPath><clipPath id="b26671ae25"><path d="M 38.574219 14.71875 L 61.664062 4.34375 L 72.652344 28.789062 L 49.5625 39.164062 Z M 38.574219 14.71875 " clip-rule="nonzero"/></clipPath><clipPath id="266f2f970e"><path d="M 62.925781 17.058594 L 66.640625 15.390625 L 67.101562 16.414062 L 63.386719 18.082031 Z M 62.925781 17.058594 " clip-rule="nonzero"/></clipPath><clipPath id="29c3afafbb"><path d="M 63 23 L 68 23 L 68 26 L 63 26 Z M 63 23 " clip-rule="nonzero"/></clipPath><clipPath id="839b6d5dc0"><path d="M 38.574219 14.71875 L 61.664062 4.34375 L 72.652344 28.789062 L 49.5625 39.164062 Z M 38.574219 14.71875 " clip-rule="nonzero"/></clipPath><clipPath id="ce62a6359f"><path d="M 38.574219 14.71875 L 61.664062 4.34375 L 72.652344 28.789062 L 49.5625 39.164062 Z M 38.574219 14.71875 " clip-rule="nonzero"/></clipPath><clipPath id="8e7ea766bb"><path d="M 57 9 L 61 9 L 61 14 L 57 14 Z M 57 9 " clip-rule="nonzero"/></clipPath><clipPath id="0442f532d1"><path d="M 38.574219 14.71875 L 61.664062 4.34375 L 72.652344 28.789062 L 49.5625 39.164062 Z M 38.574219 14.71875 " clip-rule="nonzero"/></clipPath><clipPath id="d89210b79d"><path d="M 38.574219 14.71875 L 61.664062 4.34375 L 72.652344 28.789062 L 49.5625 39.164062 Z M 38.574219 14.71875 " clip-rule="nonzero"/></clipPath><clipPath id="dd1339a847"><path d="M 43 24 L 48 24 L 48 27 L 43 27 Z M 43 24 " clip-rule="nonzero"/></clipPath><clipPath id="e5c7a89023"><path d="M 38.574219 14.71875 L 61.664062 4.34375 L 72.652344 28.789062 L 49.5625 39.164062 Z M 38.574219 14.71875 " clip-rule="nonzero"/></clipPath><clipPath id="f8a8a1388e"><path d="M 38.574219 14.71875 L 61.664062 4.34375 L 72.652344 28.789062 L 49.5625 39.164062 Z M 38.574219 14.71875 " clip-rule="nonzero"/></clipPath><clipPath id="a5e1f42189"><path d="M 50 28 L 53 28 L 53 33 L 50 33 Z M 50 28 " clip-rule="nonzero"/></clipPath><clipPath id="a836d14346"><path d="M 38.574219 14.71875 L 61.664062 4.34375 L 72.652344 28.789062 L 49.5625 39.164062 Z M 38.574219 14.71875 " clip-rule="nonzero"/></clipPath><clipPath id="0803f1e3b8"><path d="M 38.574219 14.71875 L 61.664062 4.34375 L 72.652344 28.789062 L 49.5625 39.164062 Z M 38.574219 14.71875 " clip-rule="nonzero"/></clipPath><clipPath id="6bd8850434"><path d="M 43 16 L 48 16 L 48 19 L 43 19 Z M 43 16 " clip-rule="nonzero"/></clipPath><clipPath id="113fc39fc9"><path d="M 38.574219 14.71875 L 61.664062 4.34375 L 72.652344 28.789062 L 49.5625 39.164062 Z M 38.574219 14.71875 " clip-rule="nonzero"/></clipPath><clipPath id="b9f1da0a9f"><path d="M 38.574219 14.71875 L 61.664062 4.34375 L 72.652344 28.789062 L 49.5625 39.164062 Z M 38.574219 14.71875 " clip-rule="nonzero"/></clipPath><clipPath id="c8405cc91e"><path d="M 50 17 L 54 17 L 54 22 L 50 22 Z M 50 17 " clip-rule="nonzero"/></clipPath><clipPath id="3a2bcd8e2a"><path d="M 38.574219 14.71875 L 61.664062 4.34375 L 72.652344 28.789062 L 49.5625 39.164062 Z M 38.574219 14.71875 " clip-rule="nonzero"/></clipPath><clipPath id="589138b753"><path d="M 38.574219 14.71875 L 61.664062 4.34375 L 72.652344 28.789062 L 49.5625 39.164062 Z M 38.574219 14.71875 " clip-rule="nonzero"/></clipPath><clipPath id="6fa75e301a"><path d="M 56 28 L 63 28 L 63 32 L 56 32 Z M 56 28 " clip-rule="nonzero"/></clipPath><clipPath id="f78292b54b"><path d="M 38.574219 14.71875 L 61.664062 4.34375 L 72.652344 28.789062 L 49.5625 39.164062 Z M 38.574219 14.71875 " clip-rule="nonzero"/></clipPath><clipPath id="d9e2b18c52"><path d="M 38.574219 14.71875 L 61.664062 4.34375 L 72.652344 28.789062 L 49.5625 39.164062 Z M 38.574219 14.71875 " clip-rule="nonzero"/></clipPath><clipPath id="4432ba811e"><path d="M 56 29 L 64 29 L 64 34 L 56 34 Z M 56 29 " clip-rule="nonzero"/></clipPath><clipPath id="1e447d3e72"><path d="M 38.574219 14.71875 L 61.664062 4.34375 L 72.652344 28.789062 L 49.5625 39.164062 Z M 38.574219 14.71875 " clip-rule="nonzero"/></clipPath><clipPath id="29ab1efa38"><path d="M 38.574219 14.71875 L 61.664062 4.34375 L 72.652344 28.789062 L 49.5625 39.164062 Z M 38.574219 14.71875 " clip-rule="nonzero"/></clipPath><clipPath id="9dd8a56609"><path d="M 57 31 L 63 31 L 63 35 L 57 35 Z M 57 31 " clip-rule="nonzero"/></clipPath><clipPath id="77e7944ada"><path d="M 38.574219 14.71875 L 61.664062 4.34375 L 72.652344 28.789062 L 49.5625 39.164062 Z M 38.574219 14.71875 " clip-rule="nonzero"/></clipPath><clipPath id="a4252fc8cf"><path d="M 38.574219 14.71875 L 61.664062 4.34375 L 72.652344 28.789062 L 49.5625 39.164062 Z M 38.574219 14.71875 " clip-rule="nonzero"/></clipPath><clipPath id="c2bcebd64e"><path d="M 0.6875 1 L 4 1 L 4 6 L 0.6875 6 Z M 0.6875 1 " clip-rule="nonzero"/></clipPath><clipPath id="c12b78d213"><rect x="0" width="30" y="0" height="8"/></clipPath><clipPath id="52af803110"><path d="M 0.285156 1 L 2 1 L 2 3 L 0.285156 3 Z M 0.285156 1 " clip-rule="nonzero"/></clipPath><clipPath id="514e9f76ac"><rect x="0" width="31" y="0" height="4"/></clipPath><clipPath id="b53e8181f3"><path d="M 0.339844 0.0351562 L 2 0.0351562 L 2 2.894531 L 0.339844 2.894531 Z M 0.339844 0.0351562 " clip-rule="nonzero"/></clipPath><clipPath id="2b971e27ac"><path d="M 1 0.0351562 L 4 0.0351562 L 4 2.894531 L 1 2.894531 Z M 1 0.0351562 " clip-rule="nonzero"/></clipPath><clipPath id="1a9ec79a21"><path d="M 3 0.0351562 L 5 0.0351562 L 5 2.894531 L 3 2.894531 Z M 3 0.0351562 " clip-rule="nonzero"/></clipPath><clipPath id="708571176a"><path d="M 4 0.0351562 L 7 0.0351562 L 7 2.894531 L 4 2.894531 Z M 4 0.0351562 " clip-rule="nonzero"/></clipPath><clipPath id="7f25d8ff7b"><path d="M 6 0.0351562 L 7 0.0351562 L 7 2.894531 L 6 2.894531 Z M 6 0.0351562 " clip-rule="nonzero"/></clipPath><clipPath id="62097520d8"><path d="M 6 0.0351562 L 9 0.0351562 L 9 2.894531 L 6 2.894531 Z M 6 0.0351562 " clip-rule="nonzero"/></clipPath><clipPath id="76b931385c"><path d="M 8 0.0351562 L 10 0.0351562 L 10 2.894531 L 8 2.894531 Z M 8 0.0351562 " clip-rule="nonzero"/></clipPath><clipPath id="7f5e2806f1"><path d="M 9 2 L 10 2 L 10 2.894531 L 9 2.894531 Z M 9 2 " clip-rule="nonzero"/></clipPath><clipPath id="6e2af0d093"><path d="M 10 0.0351562 L 12 0.0351562 L 12 2.894531 L 10 2.894531 Z M 10 0.0351562 " clip-rule="nonzero"/></clipPath><clipPath id="060303250c"><path d="M 11 0.0351562 L 14 0.0351562 L 14 2.894531 L 11 2.894531 Z M 11 0.0351562 " clip-rule="nonzero"/></clipPath><clipPath id="855115cd2e"><path d="M 13 0.0351562 L 15 0.0351562 L 15 2.894531 L 13 2.894531 Z M 13 0.0351562 " clip-rule="nonzero"/></clipPath><clipPath id="7fd56d681a"><path d="M 14 0.0351562 L 17 0.0351562 L 17 2.894531 L 14 2.894531 Z M 14 0.0351562 " clip-rule="nonzero"/></clipPath><clipPath id="e0ea31ce7b"><path d="M 16 0.0351562 L 18 0.0351562 L 18 2.894531 L 16 2.894531 Z M 16 0.0351562 " clip-rule="nonzero"/></clipPath><clipPath id="a9c850f683"><path d="M 17 0.0351562 L 19.875 0.0351562 L 19.875 2.894531 L 17 2.894531 Z M 17 0.0351562 " clip-rule="nonzero"/></clipPath><clipPath id="6c88348274"><path d="M 19 0.0351562 L 19.875 0.0351562 L 19.875 2.894531 L 19 2.894531 Z M 19 0.0351562 " clip-rule="nonzero"/></clipPath><clipPath id="b5d6c5ad84"><rect x="0" width="20" y="0" height="3"/></clipPath></defs><g clip-path="url(#6d89c49534)"><g clip-path="url(#bf3ad7fd88)"><g clip-path="url(#5007ad730e)"><path fill="#f28500" d="M 60.660156 22.367188 C 60.019531 24.714844 60.675781 26.171875 60.675781 26.171875 L 61.121094 27.160156 L 56.011719 29.457031 L 55.566406 28.46875 C 55.566406 28.46875 54.910156 27.007812 52.734375 25.929688 C 52.734375 25.929688 50.074219 24.679688 49.871094 21.597656 C 49.675781 18.597656 51.546875 16.785156 52.960938 16.148438 C 53 16.128906 53.039062 16.113281 53.078125 16.097656 C 53.113281 16.082031 53.152344 16.0625 53.191406 16.046875 C 54.605469 15.410156 57.207031 15.214844 59.316406 17.351562 C 61.488281 19.550781 60.660156 22.367188 60.660156 22.367188 Z M 61.394531 18.6875 C 61.089844 17.925781 60.636719 17.234375 60.042969 16.632812 C 59.464844 16.046875 58.8125 15.574219 58.113281 15.238281 C 57.484375 14.933594 56.8125 14.734375 56.121094 14.644531 C 55.511719 14.566406 54.894531 14.578125 54.289062 14.671875 C 53.753906 14.753906 53.226562 14.90625 52.769531 15.113281 C 52.734375 15.128906 52.695312 15.148438 52.65625 15.167969 C 52.621094 15.183594 52.582031 15.199219 52.542969 15.214844 C 52.085938 15.421875 51.625 15.710938 51.203125 16.058594 C 50.730469 16.449219 50.316406 16.902344 49.96875 17.410156 C 49.574219 17.988281 49.277344 18.621094 49.089844 19.292969 C 48.878906 20.042969 48.796875 20.839844 48.851562 21.664062 C 48.90625 22.507812 49.121094 23.304688 49.492188 24.035156 C 49.785156 24.617188 50.175781 25.15625 50.652344 25.640625 C 51.417969 26.414062 52.15625 26.789062 52.285156 26.851562 C 53.257812 27.332031 53.859375 27.890625 54.195312 28.277344 C 54.503906 28.625 54.632812 28.882812 54.636719 28.886719 L 55.199219 30.140625 C 55.363281 30.507812 55.796875 30.675781 56.167969 30.507812 L 61.800781 27.976562 C 62.171875 27.808594 62.335938 27.375 62.171875 27.007812 L 61.609375 25.761719 C 61.597656 25.730469 61.484375 25.433594 61.429688 24.929688 C 61.375 24.4375 61.371094 23.644531 61.644531 22.644531 C 61.683594 22.507812 61.890625 21.703125 61.820312 20.617188 C 61.777344 19.941406 61.632812 19.292969 61.394531 18.6875 " fill-opacity="1" fill-rule="nonzero"/></g></g></g><g clip-path="url(#5f288eb434)"><g clip-path="url(#4cdcb469f5)"><g clip-path="url(#d94815ab62)"><path fill="#f28500" d="M 50.804688 9.800781 C 50.691406 9.542969 50.390625 9.429688 50.132812 9.546875 C 49.875 9.660156 49.757812 9.964844 49.875 10.222656 L 51.335938 13.46875 L 52.265625 13.050781 L 50.804688 9.800781 " fill-opacity="1" fill-rule="nonzero"/></g></g></g><g clip-path="url(#e94dc4d624)"><g clip-path="url(#1cd94fb013)"><g clip-path="url(#b26671ae25)"><g clip-path="url(#266f2f970e)"><path fill="#f28500" d="M 66.195312 15.648438 L 62.949219 17.105469 L 63.367188 18.039062 L 66.613281 16.578125 C 66.871094 16.464844 66.984375 16.160156 66.871094 15.902344 C 66.753906 15.644531 66.453125 15.53125 66.195312 15.648438 " fill-opacity="1" fill-rule="nonzero"/></g></g></g></g><g clip-path="url(#29c3afafbb)"><g clip-path="url(#839b6d5dc0)"><g clip-path="url(#ce62a6359f)"><path fill="#f28500" d="M 63.535156 23.667969 L 63.171875 24.621094 L 66.5 25.886719 C 66.761719 25.984375 67.058594 25.851562 67.160156 25.589844 C 67.257812 25.324219 67.125 25.03125 66.863281 24.929688 L 63.535156 23.667969 " fill-opacity="1" fill-rule="nonzero"/></g></g></g><g clip-path="url(#8e7ea766bb)"><g clip-path="url(#0442f532d1)"><g clip-path="url(#d89210b79d)"><path fill="#f28500" d="M 60.113281 9.917969 C 60.214844 9.652344 60.082031 9.359375 59.816406 9.257812 C 59.554688 9.15625 59.257812 9.289062 59.160156 9.554688 L 57.894531 12.882812 L 58.851562 13.242188 L 60.113281 9.917969 " fill-opacity="1" fill-rule="nonzero"/></g></g></g><g clip-path="url(#dd1339a847)"><g clip-path="url(#e5c7a89023)"><g clip-path="url(#f8a8a1388e)"><path fill="#f28500" d="M 47.277344 24.148438 L 44.03125 25.609375 C 43.773438 25.726562 43.65625 26.027344 43.773438 26.285156 C 43.890625 26.542969 44.191406 26.65625 44.449219 26.542969 L 47.695312 25.082031 L 47.277344 24.148438 " fill-opacity="1" fill-rule="nonzero"/></g></g></g><g clip-path="url(#a5e1f42189)"><g clip-path="url(#a836d14346)"><g clip-path="url(#0803f1e3b8)"><path fill="#f28500" d="M 50.53125 32.269531 C 50.429688 32.535156 50.5625 32.832031 50.828125 32.929688 C 51.089844 33.03125 51.386719 32.898438 51.484375 32.632812 L 52.75 29.308594 L 51.792969 28.945312 L 50.53125 32.269531 " fill-opacity="1" fill-rule="nonzero"/></g></g></g><g clip-path="url(#6bd8850434)"><g clip-path="url(#113fc39fc9)"><g clip-path="url(#b9f1da0a9f)"><path fill="#f28500" d="M 47.109375 18.519531 L 47.472656 17.566406 L 44.144531 16.300781 C 43.882812 16.203125 43.585938 16.335938 43.484375 16.597656 C 43.386719 16.863281 43.519531 17.15625 43.78125 17.257812 L 47.109375 18.519531 " fill-opacity="1" fill-rule="nonzero"/></g></g></g><g clip-path="url(#c8405cc91e)"><g clip-path="url(#3a2bcd8e2a)"><g clip-path="url(#589138b753)"><path fill="#f28500" d="M 53.519531 17.328125 C 53.378906 17.066406 53.042969 16.980469 52.796875 17.148438 C 51.640625 17.914062 51.152344 18.886719 50.945312 19.605469 C 50.832031 19.988281 50.792969 20.335938 50.777344 20.613281 C 50.765625 20.929688 51.046875 21.183594 51.359375 21.132812 L 51.375 21.128906 C 51.609375 21.09375 51.789062 20.894531 51.796875 20.65625 C 51.824219 20.046875 52.0625 18.867188 53.359375 18 C 53.574219 17.855469 53.648438 17.570312 53.527344 17.34375 L 53.519531 17.328125 " fill-opacity="1" fill-rule="nonzero"/></g></g></g><g clip-path="url(#6fa75e301a)"><g clip-path="url(#f78292b54b)"><g clip-path="url(#d9e2b18c52)"><path fill="#f28500" d="M 61.789062 28.503906 L 56.539062 30.863281 C 56.289062 30.976562 56.183594 31.277344 56.300781 31.53125 C 56.414062 31.789062 56.710938 31.910156 56.957031 31.796875 L 62.210938 29.4375 C 62.457031 29.324219 62.566406 29.027344 62.449219 28.769531 C 62.332031 28.511719 62.039062 28.394531 61.789062 28.503906 " fill-opacity="1" fill-rule="nonzero"/></g></g></g><g clip-path="url(#4432ba811e)"><g clip-path="url(#1e447d3e72)"><g clip-path="url(#29ab1efa38)"><path fill="#f28500" d="M 62.40625 29.871094 L 57.152344 32.234375 C 56.90625 32.34375 56.796875 32.644531 56.914062 32.902344 C 57.03125 33.160156 57.324219 33.277344 57.574219 33.164062 L 62.824219 30.804688 C 63.074219 30.691406 63.179688 30.394531 63.0625 30.136719 C 62.949219 29.878906 62.652344 29.761719 62.40625 29.871094 " fill-opacity="1" fill-rule="nonzero"/></g></g></g><g clip-path="url(#9dd8a56609)"><g clip-path="url(#77e7944ada)"><g clip-path="url(#a4252fc8cf)"><path fill="#f28500" d="M 62.761719 31.359375 L 58.03125 33.484375 C 57.890625 33.546875 57.898438 33.746094 58.039062 33.796875 L 59.175781 34.230469 C 59.507812 34.355469 59.871094 34.375 60.214844 34.28125 C 60.449219 34.21875 60.742188 34.121094 61.089844 33.964844 C 61.433594 33.808594 61.703125 33.652344 61.90625 33.519531 C 62.203125 33.328125 62.429688 33.042969 62.558594 32.710938 L 62.988281 31.574219 C 63.042969 31.429688 62.898438 31.296875 62.761719 31.359375 " fill-opacity="1" fill-rule="nonzero"/></g></g></g><g fill="#0c4298" fill-opacity="1"><g transform="translate(58.546766, 48.129882)"><g><path d="M 1.484375 -12.546875 L 4.390625 -12.546875 L 4.390625 0 L 1.484375 0 Z M 1.484375 -12.546875 "/></g></g></g><g fill="#0c4298" fill-opacity="1"><g transform="translate(64.422595, 48.129882)"><g><path d="M 12.90625 0 L 12.890625 -7.53125 L 9.1875 -1.328125 L 7.890625 -1.328125 L 4.21875 -7.359375 L 4.21875 0 L 1.484375 0 L 1.484375 -12.546875 L 3.890625 -12.546875 L 8.578125 -4.75 L 13.203125 -12.546875 L 15.59375 -12.546875 L 15.625 0 Z M 12.90625 0 "/></g></g></g><g fill="#0c4298" fill-opacity="1"><g transform="translate(81.530556, 48.129882)"><g><path d="M 6.921875 -12.546875 C 8.023438 -12.546875 8.988281 -12.359375 9.8125 -11.984375 C 10.632812 -11.617188 11.265625 -11.09375 11.703125 -10.40625 C 12.140625 -9.726562 12.359375 -8.925781 12.359375 -8 C 12.359375 -7.070312 12.140625 -6.265625 11.703125 -5.578125 C 11.265625 -4.890625 10.632812 -4.363281 9.8125 -4 C 8.988281 -3.632812 8.023438 -3.453125 6.921875 -3.453125 L 4.390625 -3.453125 L 4.390625 0 L 1.484375 0 L 1.484375 -12.546875 Z M 6.75 -5.828125 C 7.625 -5.828125 8.285156 -6.015625 8.734375 -6.390625 C 9.191406 -6.765625 9.421875 -7.300781 9.421875 -8 C 9.421875 -8.695312 9.191406 -9.234375 8.734375 -9.609375 C 8.285156 -9.984375 7.625 -10.171875 6.75 -10.171875 L 4.390625 -10.171875 L 4.390625 -5.828125 Z M 6.75 -5.828125 "/></g></g></g><g fill="#0c4298" fill-opacity="1"><g transform="translate(94.643679, 48.129882)"><g><path d="M 9.75 -2.6875 L 3.921875 -2.6875 L 2.8125 0 L -0.15625 0 L 5.4375 -12.546875 L 8.296875 -12.546875 L 13.90625 0 L 10.859375 0 Z M 8.828125 -4.890625 L 6.84375 -9.703125 L 4.859375 -4.890625 Z M 8.828125 -4.890625 "/></g></g></g><g fill="#0c4298" fill-opacity="1"><g transform="translate(108.365877, 48.129882)"><g><path d="M 7.484375 0.21875 C 6.210938 0.21875 5.054688 -0.0546875 4.015625 -0.609375 C 2.984375 -1.171875 2.171875 -1.941406 1.578125 -2.921875 C 0.992188 -3.910156 0.703125 -5.023438 0.703125 -6.265625 C 0.703125 -7.515625 0.992188 -8.628906 1.578125 -9.609375 C 2.171875 -10.597656 2.984375 -11.367188 4.015625 -11.921875 C 5.054688 -12.484375 6.222656 -12.765625 7.515625 -12.765625 C 8.597656 -12.765625 9.578125 -12.570312 10.453125 -12.1875 C 11.335938 -11.800781 12.078125 -11.25 12.671875 -10.53125 L 10.8125 -8.8125 C 9.957031 -9.789062 8.90625 -10.28125 7.65625 -10.28125 C 6.875 -10.28125 6.175781 -10.109375 5.5625 -9.765625 C 4.957031 -9.429688 4.484375 -8.957031 4.140625 -8.34375 C 3.804688 -7.738281 3.640625 -7.046875 3.640625 -6.265625 C 3.640625 -5.492188 3.804688 -4.800781 4.140625 -4.1875 C 4.484375 -3.582031 4.957031 -3.109375 5.5625 -2.765625 C 6.175781 -2.429688 6.875 -2.265625 7.65625 -2.265625 C 8.90625 -2.265625 9.957031 -2.757812 10.8125 -3.75 L 12.671875 -2.03125 C 12.078125 -1.300781 11.335938 -0.742188 10.453125 -0.359375 C 9.566406 0.0234375 8.578125 0.21875 7.484375 0.21875 Z M 7.484375 0.21875 "/></g></g></g><g fill="#0c4298" fill-opacity="1"><g transform="translate(121.496915, 48.129882)"><g><path d="M 4.09375 -10.171875 L 0.078125 -10.171875 L 0.078125 -12.546875 L 11 -12.546875 L 11 -10.171875 L 6.984375 -10.171875 L 6.984375 0 L 4.09375 0 Z M 4.09375 -10.171875 "/></g></g></g><g transform="matrix(1, 0, 0, 1, 59, 49)"><g clip-path="url(#c12b78d213)"><g clip-path="url(#c2bcebd64e)"><g fill="#f28500" fill-opacity="1"><g transform="translate(0.813769, 5.305483)"><g><path d="M 1.15625 -2.890625 L 0.015625 -2.890625 L 0.015625 -3.546875 L 3.125 -3.546875 L 3.125 -2.890625 L 1.984375 -2.890625 L 1.984375 0 L 1.15625 0 Z M 1.15625 -2.890625 "/></g></g></g></g><g fill="#f28500" fill-opacity="1"><g transform="translate(3.947352, 5.305483)"><g><path d="M 2 0.0625 C 1.488281 0.0625 1.09375 -0.078125 0.8125 -0.359375 C 0.53125 -0.640625 0.390625 -1.039062 0.390625 -1.5625 L 0.390625 -3.546875 L 1.21875 -3.546875 L 1.21875 -1.59375 C 1.21875 -0.957031 1.476562 -0.640625 2 -0.640625 C 2.257812 -0.640625 2.457031 -0.71875 2.59375 -0.875 C 2.726562 -1.03125 2.796875 -1.269531 2.796875 -1.59375 L 2.796875 -3.546875 L 3.609375 -3.546875 L 3.609375 -1.5625 C 3.609375 -1.039062 3.46875 -0.640625 3.1875 -0.359375 C 2.90625 -0.078125 2.507812 0.0625 2 0.0625 Z M 2 0.0625 "/></g></g></g><g fill="#f28500" fill-opacity="1"><g transform="translate(7.942929, 5.305483)"><g><path d="M 1.15625 -2.890625 L 0.015625 -2.890625 L 0.015625 -3.546875 L 3.125 -3.546875 L 3.125 -2.890625 L 1.984375 -2.890625 L 1.984375 0 L 1.15625 0 Z M 1.15625 -2.890625 "/></g></g></g><g fill="#f28500" fill-opacity="1"><g transform="translate(11.076512, 5.305483)"><g><path d="M 2.140625 0.0625 C 1.773438 0.0625 1.441406 -0.015625 1.140625 -0.171875 C 0.847656 -0.335938 0.617188 -0.554688 0.453125 -0.828125 C 0.285156 -1.109375 0.203125 -1.425781 0.203125 -1.78125 C 0.203125 -2.125 0.285156 -2.4375 0.453125 -2.71875 C 0.617188 -3 0.847656 -3.21875 1.140625 -3.375 C 1.441406 -3.53125 1.773438 -3.609375 2.140625 -3.609375 C 2.515625 -3.609375 2.847656 -3.53125 3.140625 -3.375 C 3.429688 -3.21875 3.660156 -3 3.828125 -2.71875 C 4.003906 -2.4375 4.09375 -2.125 4.09375 -1.78125 C 4.09375 -1.425781 4.003906 -1.109375 3.828125 -0.828125 C 3.660156 -0.554688 3.429688 -0.335938 3.140625 -0.171875 C 2.847656 -0.015625 2.515625 0.0625 2.140625 0.0625 Z M 2.140625 -0.640625 C 2.347656 -0.640625 2.535156 -0.6875 2.703125 -0.78125 C 2.878906 -0.875 3.015625 -1.007812 3.109375 -1.1875 C 3.203125 -1.363281 3.25 -1.5625 3.25 -1.78125 C 3.25 -2 3.203125 -2.191406 3.109375 -2.359375 C 3.015625 -2.535156 2.878906 -2.671875 2.703125 -2.765625 C 2.535156 -2.867188 2.347656 -2.921875 2.140625 -2.921875 C 1.929688 -2.921875 1.738281 -2.867188 1.5625 -2.765625 C 1.394531 -2.671875 1.265625 -2.535156 1.171875 -2.359375 C 1.078125 -2.191406 1.03125 -2 1.03125 -1.78125 C 1.03125 -1.5625 1.078125 -1.363281 1.171875 -1.1875 C 1.265625 -1.007812 1.394531 -0.875 1.5625 -0.78125 C 1.738281 -0.6875 1.929688 -0.640625 2.140625 -0.640625 Z M 2.140625 -0.640625 "/></g></g></g><g fill="#f28500" fill-opacity="1"><g transform="translate(15.356035, 5.305483)"><g><path d="M 2.6875 0 L 2 -0.984375 L 1.25 -0.984375 L 1.25 0 L 0.421875 0 L 0.421875 -3.546875 L 1.953125 -3.546875 C 2.273438 -3.546875 2.550781 -3.492188 2.78125 -3.390625 C 3.007812 -3.285156 3.1875 -3.132812 3.3125 -2.9375 C 3.4375 -2.75 3.5 -2.523438 3.5 -2.265625 C 3.5 -2.003906 3.4375 -1.773438 3.3125 -1.578125 C 3.1875 -1.390625 3.003906 -1.242188 2.765625 -1.140625 L 3.5625 0 Z M 2.671875 -2.265625 C 2.671875 -2.460938 2.601562 -2.613281 2.46875 -2.71875 C 2.34375 -2.832031 2.160156 -2.890625 1.921875 -2.890625 L 1.25 -2.890625 L 1.25 -1.640625 L 1.921875 -1.640625 C 2.160156 -1.640625 2.34375 -1.691406 2.46875 -1.796875 C 2.601562 -1.910156 2.671875 -2.066406 2.671875 -2.265625 Z M 2.671875 -2.265625 "/></g></g></g><g fill="#f28500" fill-opacity="1"><g transform="translate(19.082875, 5.305483)"><g><path d="M 0.421875 -3.546875 L 1.25 -3.546875 L 1.25 0 L 0.421875 0 Z M 0.421875 -3.546875 "/></g></g></g><g fill="#f28500" fill-opacity="1"><g transform="translate(20.746011, 5.305483)"><g><path d="M 3.6875 -3.546875 L 3.6875 0 L 3 0 L 1.234375 -2.15625 L 1.234375 0 L 0.421875 0 L 0.421875 -3.546875 L 1.109375 -3.546875 L 2.875 -1.390625 L 2.875 -3.546875 Z M 3.6875 -3.546875 "/></g></g></g><g fill="#f28500" fill-opacity="1"><g transform="translate(24.843, 5.305483)"><g><path d="M 2.828125 -1.828125 L 3.578125 -1.828125 L 3.578125 -0.390625 C 3.378906 -0.242188 3.15625 -0.128906 2.90625 -0.046875 C 2.65625 0.0234375 2.398438 0.0625 2.140625 0.0625 C 1.765625 0.0625 1.429688 -0.015625 1.140625 -0.171875 C 0.847656 -0.328125 0.617188 -0.546875 0.453125 -0.828125 C 0.285156 -1.109375 0.203125 -1.425781 0.203125 -1.78125 C 0.203125 -2.132812 0.285156 -2.445312 0.453125 -2.71875 C 0.617188 -3 0.847656 -3.21875 1.140625 -3.375 C 1.441406 -3.53125 1.78125 -3.609375 2.15625 -3.609375 C 2.46875 -3.609375 2.75 -3.554688 3 -3.453125 C 3.25 -3.347656 3.460938 -3.195312 3.640625 -3 L 3.109375 -2.515625 C 2.859375 -2.785156 2.550781 -2.921875 2.1875 -2.921875 C 1.96875 -2.921875 1.769531 -2.867188 1.59375 -2.765625 C 1.414062 -2.671875 1.273438 -2.535156 1.171875 -2.359375 C 1.078125 -2.191406 1.03125 -2 1.03125 -1.78125 C 1.03125 -1.5625 1.078125 -1.363281 1.171875 -1.1875 C 1.273438 -1.007812 1.410156 -0.875 1.578125 -0.78125 C 1.753906 -0.6875 1.957031 -0.640625 2.1875 -0.640625 C 2.414062 -0.640625 2.628906 -0.691406 2.828125 -0.796875 Z M 2.828125 -1.828125 "/></g></g></g></g></g><g transform="matrix(1, 0, 0, 1, 103, 57)"><g clip-path="url(#514e9f76ac)"><g clip-path="url(#52af803110)"><g fill="#f28500" fill-opacity="1"><g transform="translate(0.461103, 2.643562)"><g><path d="M 0.796875 -1.453125 C 0.929688 -1.453125 1.046875 -1.429688 1.140625 -1.390625 C 1.234375 -1.347656 1.304688 -1.285156 1.359375 -1.203125 C 1.410156 -1.128906 1.4375 -1.035156 1.4375 -0.921875 C 1.4375 -0.816406 1.410156 -0.722656 1.359375 -0.640625 C 1.304688 -0.566406 1.234375 -0.507812 1.140625 -0.46875 C 1.046875 -0.425781 0.929688 -0.40625 0.796875 -0.40625 L 0.515625 -0.40625 L 0.515625 0 L 0.171875 0 L 0.171875 -1.453125 Z M 0.78125 -0.671875 C 0.882812 -0.671875 0.960938 -0.691406 1.015625 -0.734375 C 1.066406 -0.785156 1.09375 -0.847656 1.09375 -0.921875 C 1.09375 -1.003906 1.066406 -1.066406 1.015625 -1.109375 C 0.960938 -1.160156 0.882812 -1.1875 0.78125 -1.1875 L 0.515625 -1.1875 L 0.515625 -0.671875 Z M 0.78125 -0.671875 "/></g></g></g></g><g fill="#f28500" fill-opacity="1"><g transform="translate(1.987487, 2.643562)"><g><path d="M 1.296875 -0.265625 L 1.296875 0 L 0.171875 0 L 0.171875 -1.453125 L 1.265625 -1.453125 L 1.265625 -1.1875 L 0.5 -1.1875 L 0.5 -0.875 L 1.1875 -0.875 L 1.1875 -0.609375 L 0.5 -0.609375 L 0.5 -0.265625 Z M 1.296875 -0.265625 "/></g></g></g><g fill="#f28500" fill-opacity="1"><g transform="translate(3.386674, 2.643562)"><g><path d="M 1.09375 0 L 0.8125 -0.40625 L 0.515625 -0.40625 L 0.515625 0 L 0.171875 0 L 0.171875 -1.453125 L 0.796875 -1.453125 C 0.929688 -1.453125 1.046875 -1.429688 1.140625 -1.390625 C 1.234375 -1.347656 1.304688 -1.285156 1.359375 -1.203125 C 1.410156 -1.128906 1.4375 -1.035156 1.4375 -0.921875 C 1.4375 -0.816406 1.410156 -0.722656 1.359375 -0.640625 C 1.304688 -0.566406 1.234375 -0.507812 1.140625 -0.46875 L 1.453125 0 Z M 1.09375 -0.921875 C 1.09375 -1.003906 1.066406 -1.066406 1.015625 -1.109375 C 0.960938 -1.160156 0.882812 -1.1875 0.78125 -1.1875 L 0.515625 -1.1875 L 0.515625 -0.671875 L 0.78125 -0.671875 C 0.882812 -0.671875 0.960938 -0.691406 1.015625 -0.734375 C 1.066406 -0.785156 1.09375 -0.847656 1.09375 -0.921875 Z M 1.09375 -0.921875 "/></g></g></g><g fill="#f28500" fill-opacity="1"><g transform="translate(4.919316, 2.643562)"><g><path d="M 0.65625 0.03125 C 0.539062 0.03125 0.425781 0.015625 0.3125 -0.015625 C 0.207031 -0.046875 0.125 -0.0859375 0.0625 -0.140625 L 0.171875 -0.390625 C 0.234375 -0.347656 0.304688 -0.3125 0.390625 -0.28125 C 0.484375 -0.257812 0.570312 -0.25 0.65625 -0.25 C 0.75 -0.25 0.816406 -0.257812 0.859375 -0.28125 C 0.910156 -0.3125 0.9375 -0.351562 0.9375 -0.40625 C 0.9375 -0.4375 0.921875 -0.460938 0.890625 -0.484375 C 0.867188 -0.503906 0.832031 -0.519531 0.78125 -0.53125 C 0.738281 -0.550781 0.679688 -0.570312 0.609375 -0.59375 C 0.503906 -0.613281 0.414062 -0.632812 0.34375 -0.65625 C 0.269531 -0.6875 0.207031 -0.726562 0.15625 -0.78125 C 0.113281 -0.84375 0.09375 -0.925781 0.09375 -1.03125 C 0.09375 -1.113281 0.113281 -1.1875 0.15625 -1.25 C 0.195312 -1.320312 0.265625 -1.378906 0.359375 -1.421875 C 0.453125 -1.460938 0.566406 -1.484375 0.703125 -1.484375 C 0.796875 -1.484375 0.882812 -1.46875 0.96875 -1.4375 C 1.0625 -1.414062 1.140625 -1.382812 1.203125 -1.34375 L 1.09375 -1.09375 C 0.96875 -1.164062 0.835938 -1.203125 0.703125 -1.203125 C 0.609375 -1.203125 0.535156 -1.1875 0.484375 -1.15625 C 0.441406 -1.132812 0.421875 -1.097656 0.421875 -1.046875 C 0.421875 -0.992188 0.445312 -0.953125 0.5 -0.921875 C 0.550781 -0.898438 0.628906 -0.878906 0.734375 -0.859375 C 0.847656 -0.835938 0.9375 -0.8125 1 -0.78125 C 1.070312 -0.75 1.132812 -0.707031 1.1875 -0.65625 C 1.238281 -0.601562 1.265625 -0.523438 1.265625 -0.421875 C 1.265625 -0.335938 1.238281 -0.257812 1.1875 -0.1875 C 1.144531 -0.125 1.078125 -0.0703125 0.984375 -0.03125 C 0.890625 0.0078125 0.78125 0.03125 0.65625 0.03125 Z M 0.65625 0.03125 "/></g></g></g><g fill="#f28500" fill-opacity="1"><g transform="translate(6.24969, 2.643562)"><g><path d="M 0.875 0.03125 C 0.726562 0.03125 0.59375 0 0.46875 -0.0625 C 0.34375 -0.132812 0.242188 -0.226562 0.171875 -0.34375 C 0.109375 -0.457031 0.078125 -0.585938 0.078125 -0.734375 C 0.078125 -0.867188 0.109375 -0.992188 0.171875 -1.109375 C 0.242188 -1.222656 0.34375 -1.3125 0.46875 -1.375 C 0.59375 -1.445312 0.726562 -1.484375 0.875 -1.484375 C 1.03125 -1.484375 1.164062 -1.445312 1.28125 -1.375 C 1.40625 -1.3125 1.5 -1.222656 1.5625 -1.109375 C 1.632812 -0.992188 1.671875 -0.867188 1.671875 -0.734375 C 1.671875 -0.585938 1.632812 -0.457031 1.5625 -0.34375 C 1.5 -0.226562 1.40625 -0.132812 1.28125 -0.0625 C 1.164062 0 1.03125 0.03125 0.875 0.03125 Z M 0.875 -0.265625 C 0.957031 -0.265625 1.035156 -0.28125 1.109375 -0.3125 C 1.179688 -0.351562 1.234375 -0.410156 1.265625 -0.484375 C 1.304688 -0.554688 1.328125 -0.640625 1.328125 -0.734375 C 1.328125 -0.816406 1.304688 -0.894531 1.265625 -0.96875 C 1.234375 -1.039062 1.179688 -1.09375 1.109375 -1.125 C 1.035156 -1.164062 0.957031 -1.1875 0.875 -1.1875 C 0.789062 -1.1875 0.710938 -1.164062 0.640625 -1.125 C 0.578125 -1.09375 0.523438 -1.039062 0.484375 -0.96875 C 0.441406 -0.894531 0.421875 -0.816406 0.421875 -0.734375 C 0.421875 -0.640625 0.441406 -0.554688 0.484375 -0.484375 C 0.523438 -0.410156 0.578125 -0.351562 0.640625 -0.3125 C 0.710938 -0.28125 0.789062 -0.265625 0.875 -0.265625 Z M 0.875 -0.265625 "/></g></g></g><g fill="#f28500" fill-opacity="1"><g transform="translate(8.009619, 2.643562)"><g><path d="M 1.5 -1.453125 L 1.5 0 L 1.234375 0 L 0.5 -0.890625 L 0.5 0 L 0.171875 0 L 0.171875 -1.453125 L 0.453125 -1.453125 L 1.171875 -0.578125 L 1.171875 -1.453125 Z M 1.5 -1.453125 "/></g></g></g><g fill="#f28500" fill-opacity="1"><g transform="translate(9.694483, 2.643562)"><g><path d="M 1.125 -0.3125 L 0.453125 -0.3125 L 0.328125 0 L -0.015625 0 L 0.625 -1.453125 L 0.96875 -1.453125 L 1.609375 0 L 1.265625 0 Z M 1.03125 -0.5625 L 0.796875 -1.125 L 0.5625 -0.5625 Z M 1.03125 -0.5625 "/></g></g></g><g fill="#f28500" fill-opacity="1"><g transform="translate(11.291765, 2.643562)"><g><path d="M 0.171875 -1.453125 L 0.515625 -1.453125 L 0.515625 -0.28125 L 1.234375 -0.28125 L 1.234375 0 L 0.171875 0 Z M 0.171875 -1.453125 "/></g></g></g><g fill="#f28500" fill-opacity="1"><g transform="translate(12.551241, 2.643562)"><g><path d="M 0.171875 -1.453125 L 0.515625 -1.453125 L 0.515625 0 L 0.171875 0 Z M 0.171875 -1.453125 "/></g></g></g><g fill="#f28500" fill-opacity="1"><g transform="translate(13.235196, 2.643562)"><g><path d="M 0.65625 0.03125 C 0.539062 0.03125 0.425781 0.015625 0.3125 -0.015625 C 0.207031 -0.046875 0.125 -0.0859375 0.0625 -0.140625 L 0.171875 -0.390625 C 0.234375 -0.347656 0.304688 -0.3125 0.390625 -0.28125 C 0.484375 -0.257812 0.570312 -0.25 0.65625 -0.25 C 0.75 -0.25 0.816406 -0.257812 0.859375 -0.28125 C 0.910156 -0.3125 0.9375 -0.351562 0.9375 -0.40625 C 0.9375 -0.4375 0.921875 -0.460938 0.890625 -0.484375 C 0.867188 -0.503906 0.832031 -0.519531 0.78125 -0.53125 C 0.738281 -0.550781 0.679688 -0.570312 0.609375 -0.59375 C 0.503906 -0.613281 0.414062 -0.632812 0.34375 -0.65625 C 0.269531 -0.6875 0.207031 -0.726562 0.15625 -0.78125 C 0.113281 -0.84375 0.09375 -0.925781 0.09375 -1.03125 C 0.09375 -1.113281 0.113281 -1.1875 0.15625 -1.25 C 0.195312 -1.320312 0.265625 -1.378906 0.359375 -1.421875 C 0.453125 -1.460938 0.566406 -1.484375 0.703125 -1.484375 C 0.796875 -1.484375 0.882812 -1.46875 0.96875 -1.4375 C 1.0625 -1.414062 1.140625 -1.382812 1.203125 -1.34375 L 1.09375 -1.09375 C 0.96875 -1.164062 0.835938 -1.203125 0.703125 -1.203125 C 0.609375 -1.203125 0.535156 -1.1875 0.484375 -1.15625 C 0.441406 -1.132812 0.421875 -1.097656 0.421875 -1.046875 C 0.421875 -0.992188 0.445312 -0.953125 0.5 -0.921875 C 0.550781 -0.898438 0.628906 -0.878906 0.734375 -0.859375 C 0.847656 -0.835938 0.9375 -0.8125 1 -0.78125 C 1.070312 -0.75 1.132812 -0.707031 1.1875 -0.65625 C 1.238281 -0.601562 1.265625 -0.523438 1.265625 -0.421875 C 1.265625 -0.335938 1.238281 -0.257812 1.1875 -0.1875 C 1.144531 -0.125 1.078125 -0.0703125 0.984375 -0.03125 C 0.890625 0.0078125 0.78125 0.03125 0.65625 0.03125 Z M 0.65625 0.03125 "/></g></g></g><g fill="#f28500" fill-opacity="1"><g transform="translate(14.565569, 2.643562)"><g><path d="M 1.296875 -0.265625 L 1.296875 0 L 0.171875 0 L 0.171875 -1.453125 L 1.265625 -1.453125 L 1.265625 -1.1875 L 0.5 -1.1875 L 0.5 -0.875 L 1.1875 -0.875 L 1.1875 -0.609375 L 0.5 -0.609375 L 0.5 -0.265625 Z M 1.296875 -0.265625 "/></g></g></g><g fill="#f28500" fill-opacity="1"><g transform="translate(15.964757, 2.643562)"><g><path d="M 0.171875 -1.453125 L 0.828125 -1.453125 C 0.984375 -1.453125 1.125 -1.421875 1.25 -1.359375 C 1.375 -1.304688 1.46875 -1.222656 1.53125 -1.109375 C 1.601562 -1.003906 1.640625 -0.878906 1.640625 -0.734375 C 1.640625 -0.585938 1.601562 -0.457031 1.53125 -0.34375 C 1.46875 -0.238281 1.375 -0.15625 1.25 -0.09375 C 1.125 -0.03125 0.984375 0 0.828125 0 L 0.171875 0 Z M 0.8125 -0.28125 C 0.957031 -0.28125 1.070312 -0.316406 1.15625 -0.390625 C 1.25 -0.472656 1.296875 -0.585938 1.296875 -0.734375 C 1.296875 -0.867188 1.25 -0.972656 1.15625 -1.046875 C 1.070312 -1.128906 0.957031 -1.171875 0.8125 -1.171875 L 0.515625 -1.171875 L 0.515625 -0.28125 Z M 0.8125 -0.28125 "/></g></g></g><g fill="#f28500" fill-opacity="1"><g transform="translate(17.687152, 2.643562)"><g/></g></g><g fill="#f28500" fill-opacity="1"><g transform="translate(18.277271, 2.643562)"><g><path d="M 0.171875 -1.453125 L 0.515625 -1.453125 L 0.515625 -0.28125 L 1.234375 -0.28125 L 1.234375 0 L 0.171875 0 Z M 0.171875 -1.453125 "/></g></g></g><g fill="#f28500" fill-opacity="1"><g transform="translate(19.536747, 2.643562)"><g><path d="M 1.296875 -0.265625 L 1.296875 0 L 0.171875 0 L 0.171875 -1.453125 L 1.265625 -1.453125 L 1.265625 -1.1875 L 0.5 -1.1875 L 0.5 -0.875 L 1.1875 -0.875 L 1.1875 -0.609375 L 0.5 -0.609375 L 0.5 -0.265625 Z M 1.296875 -0.265625 "/></g></g></g><g fill="#f28500" fill-opacity="1"><g transform="translate(20.935934, 2.643562)"><g><path d="M 1.125 -0.3125 L 0.453125 -0.3125 L 0.328125 0 L -0.015625 0 L 0.625 -1.453125 L 0.96875 -1.453125 L 1.609375 0 L 1.265625 0 Z M 1.03125 -0.5625 L 0.796875 -1.125 L 0.5625 -0.5625 Z M 1.03125 -0.5625 "/></g></g></g><g fill="#f28500" fill-opacity="1"><g transform="translate(22.533217, 2.643562)"><g><path d="M 1.09375 0 L 0.8125 -0.40625 L 0.515625 -0.40625 L 0.515625 0 L 0.171875 0 L 0.171875 -1.453125 L 0.796875 -1.453125 C 0.929688 -1.453125 1.046875 -1.429688 1.140625 -1.390625 C 1.234375 -1.347656 1.304688 -1.285156 1.359375 -1.203125 C 1.410156 -1.128906 1.4375 -1.035156 1.4375 -0.921875 C 1.4375 -0.816406 1.410156 -0.722656 1.359375 -0.640625 C 1.304688 -0.566406 1.234375 -0.507812 1.140625 -0.46875 L 1.453125 0 Z M 1.09375 -0.921875 C 1.09375 -1.003906 1.066406 -1.066406 1.015625 -1.109375 C 0.960938 -1.160156 0.882812 -1.1875 0.78125 -1.1875 L 0.515625 -1.1875 L 0.515625 -0.671875 L 0.78125 -0.671875 C 0.882812 -0.671875 0.960938 -0.691406 1.015625 -0.734375 C 1.066406 -0.785156 1.09375 -0.847656 1.09375 -0.921875 Z M 1.09375 -0.921875 "/></g></g></g><g fill="#f28500" fill-opacity="1"><g transform="translate(24.065858, 2.643562)"><g><path d="M 1.5 -1.453125 L 1.5 0 L 1.234375 0 L 0.5 -0.890625 L 0.5 0 L 0.171875 0 L 0.171875 -1.453125 L 0.453125 -1.453125 L 1.171875 -0.578125 L 1.171875 -1.453125 Z M 1.5 -1.453125 "/></g></g></g><g fill="#f28500" fill-opacity="1"><g transform="translate(25.750722, 2.643562)"><g><path d="M 0.171875 -1.453125 L 0.515625 -1.453125 L 0.515625 0 L 0.171875 0 Z M 0.171875 -1.453125 "/></g></g></g><g fill="#f28500" fill-opacity="1"><g transform="translate(26.434677, 2.643562)"><g><path d="M 1.5 -1.453125 L 1.5 0 L 1.234375 0 L 0.5 -0.890625 L 0.5 0 L 0.171875 0 L 0.171875 -1.453125 L 0.453125 -1.453125 L 1.171875 -0.578125 L 1.171875 -1.453125 Z M 1.5 -1.453125 "/></g></g></g><g fill="#f28500" fill-opacity="1"><g transform="translate(28.119541, 2.643562)"><g><path d="M 1.15625 -0.75 L 1.46875 -0.75 L 1.46875 -0.15625 C 1.382812 -0.101562 1.289062 -0.0546875 1.1875 -0.015625 C 1.082031 0.015625 0.976562 0.03125 0.875 0.03125 C 0.71875 0.03125 0.578125 0 0.453125 -0.0625 C 0.335938 -0.132812 0.242188 -0.226562 0.171875 -0.34375 C 0.109375 -0.457031 0.078125 -0.585938 0.078125 -0.734375 C 0.078125 -0.867188 0.109375 -0.992188 0.171875 -1.109375 C 0.242188 -1.222656 0.34375 -1.3125 0.46875 -1.375 C 0.59375 -1.445312 0.726562 -1.484375 0.875 -1.484375 C 1.007812 -1.484375 1.128906 -1.457031 1.234375 -1.40625 C 1.335938 -1.363281 1.421875 -1.304688 1.484375 -1.234375 L 1.28125 -1.03125 C 1.175781 -1.132812 1.046875 -1.1875 0.890625 -1.1875 C 0.804688 -1.1875 0.726562 -1.164062 0.65625 -1.125 C 0.582031 -1.09375 0.523438 -1.039062 0.484375 -0.96875 C 0.441406 -0.894531 0.421875 -0.816406 0.421875 -0.734375 C 0.421875 -0.640625 0.441406 -0.554688 0.484375 -0.484375 C 0.523438 -0.410156 0.578125 -0.351562 0.640625 -0.3125 C 0.710938 -0.28125 0.796875 -0.265625 0.890625 -0.265625 C 0.984375 -0.265625 1.070312 -0.285156 1.15625 -0.328125 Z M 1.15625 -0.75 "/></g></g></g></g></g><g transform="matrix(1, 0, 0, 1, 112, 60)"><g clip-path="url(#b5d6c5ad84)"><g clip-path="url(#b53e8181f3)"><g fill="#0c4298" fill-opacity="1"><g transform="translate(0.537127, 2.006814)"><g><path d="M 0.171875 -1.453125 L 0.515625 -1.453125 L 0.515625 -0.28125 L 1.234375 -0.28125 L 1.234375 0 L 0.171875 0 Z M 0.171875 -1.453125 "/></g></g></g></g><g clip-path="url(#2b971e27ac)"><g fill="#0c4298" fill-opacity="1"><g transform="translate(1.796608, 2.006814)"><g><path d="M 1.125 -0.3125 L 0.453125 -0.3125 L 0.328125 0 L -0.015625 0 L 0.625 -1.453125 L 0.96875 -1.453125 L 1.609375 0 L 1.265625 0 Z M 1.03125 -0.5625 L 0.796875 -1.125 L 0.5625 -0.5625 Z M 1.03125 -0.5625 "/></g></g></g></g><g clip-path="url(#1a9ec79a21)"><g fill="#0c4298" fill-opacity="1"><g transform="translate(3.393899, 2.006814)"><g><path d="M 0.65625 0.03125 C 0.539062 0.03125 0.425781 0.015625 0.3125 -0.015625 C 0.207031 -0.046875 0.125 -0.0859375 0.0625 -0.140625 L 0.171875 -0.390625 C 0.234375 -0.347656 0.304688 -0.3125 0.390625 -0.28125 C 0.484375 -0.257812 0.570312 -0.25 0.65625 -0.25 C 0.75 -0.25 0.816406 -0.257812 0.859375 -0.28125 C 0.910156 -0.3125 0.9375 -0.351562 0.9375 -0.40625 C 0.9375 -0.4375 0.921875 -0.460938 0.890625 -0.484375 C 0.867188 -0.503906 0.832031 -0.519531 0.78125 -0.53125 C 0.738281 -0.550781 0.679688 -0.570312 0.609375 -0.59375 C 0.503906 -0.613281 0.414062 -0.632812 0.34375 -0.65625 C 0.269531 -0.6875 0.207031 -0.726562 0.15625 -0.78125 C 0.113281 -0.84375 0.09375 -0.925781 0.09375 -1.03125 C 0.09375 -1.113281 0.113281 -1.1875 0.15625 -1.25 C 0.195312 -1.320312 0.265625 -1.378906 0.359375 -1.421875 C 0.453125 -1.460938 0.566406 -1.484375 0.703125 -1.484375 C 0.796875 -1.484375 0.882812 -1.46875 0.96875 -1.4375 C 1.0625 -1.414062 1.140625 -1.382812 1.203125 -1.34375 L 1.09375 -1.09375 C 0.96875 -1.164062 0.835938 -1.203125 0.703125 -1.203125 C 0.609375 -1.203125 0.535156 -1.1875 0.484375 -1.15625 C 0.441406 -1.132812 0.421875 -1.097656 0.421875 -1.046875 C 0.421875 -0.992188 0.445312 -0.953125 0.5 -0.921875 C 0.550781 -0.898438 0.628906 -0.878906 0.734375 -0.859375 C 0.847656 -0.835938 0.9375 -0.8125 1 -0.78125 C 1.070312 -0.75 1.132812 -0.707031 1.1875 -0.65625 C 1.238281 -0.601562 1.265625 -0.523438 1.265625 -0.421875 C 1.265625 -0.335938 1.238281 -0.257812 1.1875 -0.1875 C 1.144531 -0.125 1.078125 -0.0703125 0.984375 -0.03125 C 0.890625 0.0078125 0.78125 0.03125 0.65625 0.03125 Z M 0.65625 0.03125 "/></g></g></g></g><g clip-path="url(#708571176a)"><g fill="#0c4298" fill-opacity="1"><g transform="translate(4.724279, 2.006814)"><g><path d="M 0.46875 -1.1875 L 0.015625 -1.1875 L 0.015625 -1.453125 L 1.28125 -1.453125 L 1.28125 -1.1875 L 0.8125 -1.1875 L 0.8125 0 L 0.46875 0 Z M 0.46875 -1.1875 "/></g></g></g></g><g clip-path="url(#7f25d8ff7b)"><g fill="#0c4298" fill-opacity="1"><g transform="translate(6.012954, 2.006814)"><g><path d="M 0.171875 -1.453125 L 0.515625 -1.453125 L 0.515625 0 L 0.171875 0 Z M 0.171875 -1.453125 "/></g></g></g></g><g clip-path="url(#62097520d8)"><g fill="#0c4298" fill-opacity="1"><g transform="translate(6.696913, 2.006814)"><g><path d="M 1.5 -1.453125 L 1.5 0 L 1.234375 0 L 0.5 -0.890625 L 0.5 0 L 0.171875 0 L 0.171875 -1.453125 L 0.453125 -1.453125 L 1.171875 -0.578125 L 1.171875 -1.453125 Z M 1.5 -1.453125 "/></g></g></g></g><g clip-path="url(#76b931385c)"><g fill="#0c4298" fill-opacity="1"><g transform="translate(8.381785, 2.006814)"><g><path d="M 1.15625 -0.75 L 1.46875 -0.75 L 1.46875 -0.15625 C 1.382812 -0.101562 1.289062 -0.0546875 1.1875 -0.015625 C 1.082031 0.015625 0.976562 0.03125 0.875 0.03125 C 0.71875 0.03125 0.578125 0 0.453125 -0.0625 C 0.335938 -0.132812 0.242188 -0.226562 0.171875 -0.34375 C 0.109375 -0.457031 0.078125 -0.585938 0.078125 -0.734375 C 0.078125 -0.867188 0.109375 -0.992188 0.171875 -1.109375 C 0.242188 -1.222656 0.34375 -1.3125 0.46875 -1.375 C 0.59375 -1.445312 0.726562 -1.484375 0.875 -1.484375 C 1.007812 -1.484375 1.128906 -1.457031 1.234375 -1.40625 C 1.335938 -1.363281 1.421875 -1.304688 1.484375 -1.234375 L 1.28125 -1.03125 C 1.175781 -1.132812 1.046875 -1.1875 0.890625 -1.1875 C 0.804688 -1.1875 0.726562 -1.164062 0.65625 -1.125 C 0.582031 -1.09375 0.523438 -1.039062 0.484375 -0.96875 C 0.441406 -0.894531 0.421875 -0.816406 0.421875 -0.734375 C 0.421875 -0.640625 0.441406 -0.554688 0.484375 -0.484375 C 0.523438 -0.410156 0.578125 -0.351562 0.640625 -0.3125 C 0.710938 -0.28125 0.796875 -0.265625 0.890625 -0.265625 C 0.984375 -0.265625 1.070312 -0.285156 1.15625 -0.328125 Z M 1.15625 -0.75 "/></g></g></g></g><g clip-path="url(#7f5e2806f1)"><g fill="#0c4298" fill-opacity="1"><g transform="translate(9.989501, 2.006814)"><g/></g></g></g><g clip-path="url(#6e2af0d093)"><g fill="#0c4298" fill-opacity="1"><g transform="translate(10.579623, 2.006814)"><g><path d="M 0.171875 -1.453125 L 0.515625 -1.453125 L 0.515625 0 L 0.171875 0 Z M 0.171875 -1.453125 "/></g></g></g></g><g clip-path="url(#060303250c)"><g fill="#0c4298" fill-opacity="1"><g transform="translate(11.263582, 2.006814)"><g><path d="M 1.5 0 L 1.5 -0.875 L 1.0625 -0.15625 L 0.921875 -0.15625 L 0.484375 -0.859375 L 0.484375 0 L 0.171875 0 L 0.171875 -1.453125 L 0.453125 -1.453125 L 1 -0.546875 L 1.53125 -1.453125 L 1.8125 -1.453125 L 1.8125 0 Z M 1.5 0 "/></g></g></g></g><g clip-path="url(#855115cd2e)"><g fill="#0c4298" fill-opacity="1"><g transform="translate(13.254983, 2.006814)"><g><path d="M 0.796875 -1.453125 C 0.929688 -1.453125 1.046875 -1.429688 1.140625 -1.390625 C 1.234375 -1.347656 1.304688 -1.285156 1.359375 -1.203125 C 1.410156 -1.128906 1.4375 -1.035156 1.4375 -0.921875 C 1.4375 -0.816406 1.410156 -0.722656 1.359375 -0.640625 C 1.304688 -0.566406 1.234375 -0.507812 1.140625 -0.46875 C 1.046875 -0.425781 0.929688 -0.40625 0.796875 -0.40625 L 0.515625 -0.40625 L 0.515625 0 L 0.171875 0 L 0.171875 -1.453125 Z M 0.78125 -0.671875 C 0.882812 -0.671875 0.960938 -0.691406 1.015625 -0.734375 C 1.066406 -0.785156 1.09375 -0.847656 1.09375 -0.921875 C 1.09375 -1.003906 1.066406 -1.066406 1.015625 -1.109375 C 0.960938 -1.160156 0.882812 -1.1875 0.78125 -1.1875 L 0.515625 -1.1875 L 0.515625 -0.671875 Z M 0.78125 -0.671875 "/></g></g></g></g><g clip-path="url(#7fd56d681a)"><g fill="#0c4298" fill-opacity="1"><g transform="translate(14.781375, 2.006814)"><g><path d="M 1.125 -0.3125 L 0.453125 -0.3125 L 0.328125 0 L -0.015625 0 L 0.625 -1.453125 L 0.96875 -1.453125 L 1.609375 0 L 1.265625 0 Z M 1.03125 -0.5625 L 0.796875 -1.125 L 0.5625 -0.5625 Z M 1.03125 -0.5625 "/></g></g></g></g><g clip-path="url(#e0ea31ce7b)"><g fill="#0c4298" fill-opacity="1"><g transform="translate(16.378665, 2.006814)"><g><path d="M 0.875 0.03125 C 0.71875 0.03125 0.578125 0 0.453125 -0.0625 C 0.335938 -0.132812 0.242188 -0.226562 0.171875 -0.34375 C 0.109375 -0.457031 0.078125 -0.585938 0.078125 -0.734375 C 0.078125 -0.867188 0.109375 -0.992188 0.171875 -1.109375 C 0.242188 -1.222656 0.335938 -1.3125 0.453125 -1.375 C 0.578125 -1.445312 0.71875 -1.484375 0.875 -1.484375 C 1 -1.484375 1.109375 -1.457031 1.203125 -1.40625 C 1.304688 -1.363281 1.394531 -1.300781 1.46875 -1.21875 L 1.25 -1.015625 C 1.15625 -1.128906 1.035156 -1.1875 0.890625 -1.1875 C 0.796875 -1.1875 0.710938 -1.164062 0.640625 -1.125 C 0.578125 -1.09375 0.523438 -1.039062 0.484375 -0.96875 C 0.441406 -0.894531 0.421875 -0.816406 0.421875 -0.734375 C 0.421875 -0.640625 0.441406 -0.554688 0.484375 -0.484375 C 0.523438 -0.410156 0.578125 -0.351562 0.640625 -0.3125 C 0.710938 -0.28125 0.796875 -0.265625 0.890625 -0.265625 C 1.035156 -0.265625 1.15625 -0.320312 1.25 -0.4375 L 1.46875 -0.234375 C 1.394531 -0.148438 1.304688 -0.0820312 1.203125 -0.03125 C 1.109375 0.0078125 1 0.03125 0.875 0.03125 Z M 0.875 0.03125 "/></g></g></g></g><g clip-path="url(#a9c850f683)"><g fill="#0c4298" fill-opacity="1"><g transform="translate(17.907144, 2.006814)"><g><path d="M 0.46875 -1.1875 L 0.015625 -1.1875 L 0.015625 -1.453125 L 1.28125 -1.453125 L 1.28125 -1.1875 L 0.8125 -1.1875 L 0.8125 0 L 0.46875 0 Z M 0.46875 -1.1875 "/></g></g></g></g><g clip-path="url(#6c88348274)"><g fill="#0c4298" fill-opacity="1"><g transform="translate(19.195819, 2.006814)"><g><path d="M 0.109375 -1.453125 L 0.5 -1.453125 L 0.4375 -0.5 L 0.171875 -0.5 Z M 0.296875 0.015625 C 0.242188 0.015625 0.195312 0 0.15625 -0.03125 C 0.125 -0.0703125 0.109375 -0.117188 0.109375 -0.171875 C 0.109375 -0.222656 0.125 -0.265625 0.15625 -0.296875 C 0.195312 -0.335938 0.242188 -0.359375 0.296875 -0.359375 C 0.359375 -0.359375 0.40625 -0.335938 0.4375 -0.296875 C 0.476562 -0.265625 0.5 -0.222656 0.5 -0.171875 C 0.5 -0.117188 0.476562 -0.0703125 0.4375 -0.03125 C 0.40625 0 0.359375 0.015625 0.296875 0.015625 Z M 0.296875 0.015625 "/></g></g></g></g></g></g></svg>